<svg width="32" height="21" viewBox="0 0 32 21" fill="none" xmlns="http://www.w3.org/2000/svg">
<rect x="0.0185547" width="31" height="21" rx="3" fill="#0093DD"/>
<path d="M8.375 11.2917C11.225 4.95832 19.775 4.95832 22.625 11.2917" stroke="white" stroke-width="1.5" stroke-linecap="round" stroke-linejoin="round"/>
<path d="M15.5 14.4583C15.1881 14.4583 14.8793 14.3969 14.5911 14.2775C14.303 14.1582 14.0412 13.9832 13.8206 13.7627C13.6001 13.5422 13.4251 13.2803 13.3058 12.9922C13.1864 12.704 13.125 12.3952 13.125 12.0833C13.125 11.7714 13.1864 11.4626 13.3058 11.1744C13.4251 10.8863 13.6001 10.6245 13.8206 10.4039C14.0412 10.1834 14.303 10.0085 14.5911 9.8891C14.8793 9.76974 15.1881 9.70831 15.5 9.70831C16.1299 9.70831 16.734 9.95854 17.1794 10.4039C17.6248 10.8493 17.875 11.4534 17.875 12.0833C17.875 12.7132 17.6248 13.3173 17.1794 13.7627C16.734 14.2081 16.1299 14.4583 15.5 14.4583Z" fill="white" stroke="white" stroke-width="1.5" stroke-linecap="round" stroke-linejoin="round"/>
</svg>
