<svg width="28" height="38" viewBox="0 0 28 38" fill="none" xmlns="http://www.w3.org/2000/svg">
<path d="M15.7281 36.4C19.4687 31.7188 28 20.3729 28 14C28 6.27083 21.7292 0 14 0C6.27083 0 0 6.27083 0 14C0 20.3729 8.53125 31.7188 12.2719 36.4C13.1687 37.5156 14.8312 37.5156 15.7281 36.4ZM14 9.33333C15.2377 9.33333 16.4247 9.825 17.2998 10.7002C18.175 11.5753 18.6667 12.7623 18.6667 14C18.6667 15.2377 18.175 16.4247 17.2998 17.2998C16.4247 18.175 15.2377 18.6667 14 18.6667C12.7623 18.6667 11.5753 18.175 10.7002 17.2998C9.825 16.4247 9.33333 15.2377 9.33333 14C9.33333 12.7623 9.825 11.5753 10.7002 10.7002C11.5753 9.825 12.7623 9.33333 14 9.33333Z" fill="#E27303"/>
</svg>
