<svg width="24" height="24" viewBox="0 0 24 24" fill="none" xmlns="http://www.w3.org/2000/svg">
<rect width="24" height="24" rx="7" fill="#5DAB2C"/>
<path d="M6.4 16.8C6.015 16.8 5.68553 16.663 5.4116 16.3891C5.13767 16.1152 5.00047 15.7855 5 15.4V8.4C5 8.015 5.1372 7.68553 5.4116 7.4116C5.686 7.13767 6.01547 7.00047 6.4 7H17.6C17.985 7 18.3147 7.1372 18.5891 7.4116C18.8635 7.686 19.0005 8.01547 19 8.4V15.4C19 15.785 18.863 16.1147 18.5891 16.3891C18.3152 16.6635 17.9855 16.8005 17.6 16.8H6.4ZM6.4 15.4H17.6V8.4H6.4V15.4ZM9.2 14.7H14.8V13.3H9.2V14.7ZM7.1 12.6H8.5V11.2H7.1V12.6ZM9.2 12.6H10.6V11.2H9.2V12.6ZM11.3 12.6H12.7V11.2H11.3V12.6ZM13.4 12.6H14.8V11.2H13.4V12.6ZM15.5 12.6H16.9V11.2H15.5V12.6ZM7.1 10.5H8.5V9.1H7.1V10.5ZM9.2 10.5H10.6V9.1H9.2V10.5ZM11.3 10.5H12.7V9.1H11.3V10.5ZM13.4 10.5H14.8V9.1H13.4V10.5ZM15.5 10.5H16.9V9.1H15.5V10.5Z" fill="white"/>
</svg>
