<svg width="24" height="24" viewBox="0 0 24 24" fill="none" xmlns="http://www.w3.org/2000/svg">
<rect width="24" height="24" rx="7" fill="#10926D"/>
<path d="M14.6667 6H7.44444C6.65 6 6.00722 6.65 6.00722 7.44444L6 17.5556C6 18.35 6.64278 19 7.43722 19H17.5556C18.35 19 19 18.35 19 17.5556V10.3333L14.6667 6ZM9.61111 16.1111C9.21389 16.1111 8.88889 15.7861 8.88889 15.3889C8.88889 14.9917 9.21389 14.6667 9.61111 14.6667C10.0083 14.6667 10.3333 14.9917 10.3333 15.3889C10.3333 15.7861 10.0083 16.1111 9.61111 16.1111ZM9.61111 13.2222C9.21389 13.2222 8.88889 12.8972 8.88889 12.5C8.88889 12.1028 9.21389 11.7778 9.61111 11.7778C10.0083 11.7778 10.3333 12.1028 10.3333 12.5C10.3333 12.8972 10.0083 13.2222 9.61111 13.2222ZM9.61111 10.3333C9.21389 10.3333 8.88889 10.0083 8.88889 9.61111C8.88889 9.21389 9.21389 8.88889 9.61111 8.88889C10.0083 8.88889 10.3333 9.21389 10.3333 9.61111C10.3333 10.0083 10.0083 10.3333 9.61111 10.3333ZM13.9444 11.0556V7.08333L17.9167 11.0556H13.9444Z" fill="white"/>
</svg>
