<svg width="24" height="24" viewBox="0 0 24 24" fill="none" xmlns="http://www.w3.org/2000/svg">
<rect width="24" height="24" rx="7" fill="#E20303"/>
<path d="M12 15.8889C12.2204 15.8889 12.4052 15.8142 12.5546 15.6649C12.7039 15.5156 12.7783 15.331 12.7778 15.1111C12.7773 14.8913 12.7026 14.7067 12.5538 14.5573C12.405 14.408 12.2204 14.3333 12 14.3333C11.7796 14.3333 11.595 14.408 11.4462 14.5573C11.2974 14.7067 11.2227 14.8913 11.2222 15.1111C11.2217 15.331 11.2964 15.5158 11.4462 15.6657C11.5961 15.8155 11.7807 15.8899 12 15.8889ZM11.2222 12.7778H12.7778V8.11111H11.2222V12.7778ZM9.08333 19L5 14.9167V9.08333L9.08333 5H14.9167L19 9.08333V14.9167L14.9167 19H9.08333Z" fill="white"/>
</svg>
