<svg width="28" height="37" viewBox="0 0 28 37" fill="none" xmlns="http://www.w3.org/2000/svg">
<path d="M15.7281 36.1686C19.4687 31.5171 28 20.2434 28 13.911C28 6.23097 21.7292 0 14 0C6.27083 0 0 6.23097 0 13.911C0 20.2434 8.53125 31.5171 12.2719 36.1686C13.1687 37.2771 14.8312 37.2771 15.7281 36.1686ZM14 9.274C15.2377 9.274 16.4247 9.76254 17.2998 10.6321C18.175 11.5018 18.6667 12.6812 18.6667 13.911C18.6667 15.1408 18.175 16.3202 17.2998 17.1899C16.4247 18.0595 15.2377 18.548 14 18.548C12.7623 18.548 11.5753 18.0595 10.7002 17.1899C9.825 16.3202 9.33333 15.1408 9.33333 13.911C9.33333 12.6812 9.825 11.5018 10.7002 10.6321C11.5753 9.76254 12.7623 9.274 14 9.274Z" fill="#16604B"/>
</svg>
