<svg width="58" height="41" viewBox="0 0 58 41" fill="none" xmlns="http://www.w3.org/2000/svg">
<path d="M13.5181 1.00863L1.04839 20.0848L1.0011 32.9024C0.991694 35.4504 1.37539 37.1012 2.24305 38.2492C2.95146 39.1873 4.35055 40.3105 6.98055 40.3202L16.7825 40.3564C20.1019 40.3686 21.9377 39.8687 23.1281 38.6257C24.2361 37.4646 24.7349 35.7267 24.745 32.9901L24.7717 25.736C24.7816 23.0609 24.3407 21.3462 23.3398 20.167C22.3267 18.9775 20.7697 18.3994 18.095 18.2623L27.6652 1.06083L13.5181 1.00863Z" fill="white" fill-opacity="0.54"/>
<path d="M47.657 18.3694L57.2272 1.16996L43.0925 1.1178L30.4545 20.1831L30.4072 33.011C30.3979 35.5179 30.7981 37.1606 31.7005 38.3374C32.4273 39.2858 33.8551 40.4194 36.5426 40.4293L46.3446 40.4655C49.6064 40.4775 51.4136 39.9877 52.571 38.7734C53.6666 37.6266 54.1406 35.9276 54.1511 33.0986L54.1778 25.8446C54.1876 23.2043 53.7753 21.5082 52.8441 20.3457C51.672 18.8868 49.7245 18.4735 47.657 18.3694Z" fill="white" fill-opacity="0.54"/>
</svg>
