<svg xmlns="http://www.w3.org/2000/svg" xmlns:xlink="http://www.w3.org/1999/xlink" width="500" zoomAndPan="magnify" viewBox="0 0 375 374.999991" height="500" preserveAspectRatio="xMidYMid meet" version="1.2"><defs><clipPath id="ea8f86d31d"><path d="M 7.703125 77.554688 L 361 77.554688 L 361 300.566406 L 7.703125 300.566406 Z M 7.703125 77.554688 "/></clipPath><clipPath id="34b54c96b0"><path d="M 167.523438 189.273438 L 218.320312 189.273438 L 218.320312 235.117188 L 167.523438 235.117188 Z M 167.523438 189.273438 "/></clipPath></defs><g id="721737d4af"><g clip-rule="nonzero" clip-path="url(#ea8f86d31d)"><path style=" stroke:none;fill-rule:nonzero;fill:#ffffff;fill-opacity:1;" d="M 174.957031 240.539062 L 207.863281 240.539062 L 207.863281 279.324219 L 202.296875 279.324219 L 202.296875 246.109375 L 180.488281 246.109375 L 180.488281 279.324219 L 174.917969 279.324219 L 174.917969 240.539062 Z M 117.480469 223.640625 L 140.613281 223.640625 L 140.613281 300.472656 L 146.179688 300.472656 L 146.179688 218.109375 L 132.394531 218.109375 L 191.429688 166.980469 L 250.464844 218.109375 L 236.679688 218.109375 L 236.679688 300.472656 L 242.25 300.472656 L 242.25 223.640625 L 265.378906 223.640625 L 191.390625 159.65625 Z M 213.394531 162.65625 L 229.007812 162.65625 L 229.007812 184.851562 L 234.578125 189.644531 L 234.578125 157.085938 L 207.863281 157.085938 L 207.863281 166.550781 L 213.433594 171.339844 L 213.433594 162.65625 Z M 55.523438 241.203125 L 61.09375 241.203125 L 61.09375 215.890625 L 77.019531 215.890625 L 77.019531 241.203125 L 82.589844 241.203125 L 82.589844 210.359375 L 55.5625 210.359375 L 55.5625 241.203125 Z M 69.035156 145.015625 L 7.703125 198.132812 L 26.902344 198.132812 L 26.902344 257.675781 L 32.46875 257.675781 L 32.46875 192.601562 L 22.578125 192.601562 L 69.035156 152.375 L 115.492188 192.601562 L 105.640625 192.601562 L 105.640625 257.675781 L 111.210938 257.675781 L 111.210938 198.132812 L 130.371094 198.132812 Z M 88.078125 150.234375 L 100.035156 150.234375 L 100.035156 164.5625 L 105.601562 169.355469 L 105.601562 144.664062 L 82.550781 144.664062 L 82.550781 149.378906 L 88.117188 154.167969 L 88.117188 150.234375 Z M 296.613281 230.179688 L 302.179688 230.179688 L 302.179688 214.878906 L 313.980469 214.878906 L 313.980469 230.179688 L 319.546875 230.179688 L 319.546875 209.347656 L 296.652344 209.347656 L 296.652344 230.179688 Z M 308.0625 152.023438 L 255.101562 197.859375 L 271.648438 197.859375 L 271.648438 245.875 L 277.21875 245.875 L 277.21875 192.328125 L 269.976562 192.328125 L 308.023438 159.386719 L 346.066406 192.328125 L 338.863281 192.328125 L 338.863281 245.875 L 344.433594 245.875 L 344.433594 197.898438 L 360.980469 197.898438 Z M 325.078125 156.035156 L 334.617188 156.035156 L 334.617188 167.640625 L 340.1875 172.429688 L 340.1875 150.46875 L 319.546875 150.46875 L 319.546875 154.554688 L 325.078125 159.425781 Z M 279.011719 138.824219 L 279.011719 122.9375 L 260.203125 122.9375 L 260.203125 138.824219 L 265.769531 138.824219 L 265.769531 128.464844 L 273.480469 128.464844 L 273.480469 138.824219 Z M 239.71875 150.507812 L 245.285156 150.507812 L 245.285156 109.929688 L 241.003906 109.929688 L 269.625 85.125 L 298.246094 109.929688 L 293.964844 109.929688 L 293.964844 150.507812 L 299.53125 150.507812 L 299.53125 115.460938 L 313.121094 115.460938 L 269.625 77.800781 L 226.128906 115.460938 L 239.71875 115.460938 Z M 284.578125 83.214844 L 291.707031 83.214844 L 291.707031 89.5625 L 297.273438 94.351562 L 297.273438 77.648438 L 279.050781 77.648438 L 279.050781 78.582031 L 284.578125 83.410156 Z M 158.484375 138.902344 L 158.484375 123.015625 L 139.714844 123.015625 L 139.714844 138.902344 L 145.285156 138.902344 L 145.285156 128.542969 L 152.957031 128.542969 L 152.957031 138.902344 Z M 119.195312 150.585938 L 124.761719 150.585938 L 124.761719 110.007812 L 120.480469 110.007812 L 149.101562 85.203125 L 177.722656 110.007812 L 173.4375 110.007812 L 173.4375 150.585938 L 179.007812 150.585938 L 179.007812 115.535156 L 192.597656 115.535156 L 149.101562 77.878906 L 105.601562 115.535156 L 119.195312 115.535156 Z M 164.054688 83.253906 L 171.179688 83.253906 L 171.179688 89.601562 L 176.710938 94.429688 L 176.710938 77.722656 L 158.484375 77.722656 L 158.484375 78.660156 L 164.054688 83.488281 Z M 164.054688 83.253906 "/></g><g clip-rule="nonzero" clip-path="url(#34b54c96b0)"><path style=" stroke:none;fill-rule:nonzero;fill:#ffffff;fill-opacity:1;" d="M 204.886719 194.117188 L 194.039062 194.117188 L 194.039062 190.5 C 194.039062 190.339844 194.007812 190.1875 193.949219 190.039062 C 193.886719 189.890625 193.800781 189.761719 193.6875 189.648438 C 193.574219 189.535156 193.441406 189.449219 193.296875 189.386719 C 193.148438 189.324219 192.992188 189.296875 192.835938 189.296875 C 192.675781 189.296875 192.519531 189.324219 192.371094 189.386719 C 192.226562 189.449219 192.09375 189.535156 191.980469 189.648438 C 191.867188 189.761719 191.78125 189.890625 191.71875 190.039062 C 191.660156 190.1875 191.628906 190.339844 191.628906 190.5 L 191.628906 194.117188 L 180.78125 194.117188 C 180.386719 194.117188 179.996094 194.15625 179.605469 194.234375 C 179.21875 194.3125 178.839844 194.425781 178.476562 194.578125 C 178.109375 194.726562 177.765625 194.914062 177.433594 195.132812 C 177.105469 195.355469 176.800781 195.601562 176.523438 195.882812 C 176.242188 196.164062 175.992188 196.46875 175.773438 196.796875 C 175.550781 197.125 175.367188 197.472656 175.214844 197.835938 C 175.0625 198.203125 174.949219 198.578125 174.871094 198.96875 C 174.792969 199.355469 174.753906 199.746094 174.753906 200.144531 L 174.753906 221.835938 C 174.753906 222.234375 174.792969 222.625 174.871094 223.011719 C 174.949219 223.402344 175.0625 223.777344 175.214844 224.144531 C 175.367188 224.507812 175.550781 224.855469 175.773438 225.183594 C 175.992188 225.511719 176.242188 225.816406 176.523438 226.097656 C 176.800781 226.375 177.105469 226.625 177.433594 226.847656 C 177.765625 227.066406 178.109375 227.25 178.476562 227.402344 C 178.839844 227.554688 179.21875 227.667969 179.605469 227.746094 C 179.996094 227.824219 180.386719 227.863281 180.78125 227.863281 L 187.367188 227.863281 L 191.832031 234.558594 C 191.941406 234.726562 192.085938 234.859375 192.265625 234.953125 C 192.441406 235.046875 192.632812 235.09375 192.835938 235.09375 C 193.035156 235.09375 193.226562 235.046875 193.402344 234.953125 C 193.582031 234.859375 193.726562 234.726562 193.835938 234.558594 L 198.300781 227.863281 L 204.886719 227.863281 C 205.28125 227.863281 205.675781 227.824219 206.0625 227.746094 C 206.449219 227.667969 206.828125 227.554688 207.191406 227.402344 C 207.558594 227.25 207.90625 227.066406 208.234375 226.847656 C 208.5625 226.625 208.867188 226.375 209.144531 226.097656 C 209.425781 225.816406 209.675781 225.511719 209.894531 225.183594 C 210.117188 224.855469 210.300781 224.507812 210.453125 224.144531 C 210.605469 223.777344 210.71875 223.402344 210.796875 223.011719 C 210.875 222.625 210.914062 222.234375 210.914062 221.835938 L 210.914062 200.144531 C 210.914062 199.746094 210.875 199.355469 210.796875 198.96875 C 210.71875 198.578125 210.605469 198.203125 210.453125 197.835938 C 210.300781 197.472656 210.117188 197.125 209.894531 196.796875 C 209.675781 196.46875 209.425781 196.164062 209.144531 195.882812 C 208.867188 195.601562 208.5625 195.355469 208.234375 195.132812 C 207.90625 194.914062 207.558594 194.726562 207.191406 194.578125 C 206.828125 194.425781 206.449219 194.3125 206.0625 194.234375 C 205.675781 194.15625 205.28125 194.117188 204.886719 194.117188 Z M 208.503906 221.835938 C 208.5 222.316406 208.410156 222.777344 208.226562 223.21875 C 208.042969 223.664062 207.78125 224.054688 207.441406 224.394531 C 207.101562 224.730469 206.710938 224.992188 206.269531 225.175781 C 205.828125 225.359375 205.367188 225.453125 204.886719 225.453125 L 197.65625 225.453125 C 197.226562 225.453125 196.890625 225.632812 196.652344 225.988281 L 192.835938 231.71875 L 189.015625 225.988281 C 188.777344 225.632812 188.441406 225.453125 188.011719 225.453125 L 180.78125 225.453125 C 180.300781 225.453125 179.839844 225.359375 179.398438 225.175781 C 178.957031 224.992188 178.566406 224.730469 178.226562 224.394531 C 177.886719 224.054688 177.625 223.664062 177.441406 223.21875 C 177.257812 222.777344 177.167969 222.316406 177.164062 221.835938 L 177.164062 218.222656 L 208.503906 218.222656 Z M 208.503906 215.8125 L 177.164062 215.8125 L 177.164062 200.144531 C 177.167969 199.664062 177.257812 199.203125 177.441406 198.757812 C 177.625 198.316406 177.886719 197.925781 178.226562 197.585938 C 178.566406 197.25 178.957031 196.988281 179.398438 196.804688 C 179.839844 196.621094 180.300781 196.527344 180.78125 196.527344 L 204.886719 196.527344 C 205.367188 196.527344 205.828125 196.621094 206.269531 196.804688 C 206.710938 196.988281 207.101562 197.25 207.441406 197.585938 C 207.78125 197.925781 208.042969 198.316406 208.226562 198.757812 C 208.410156 199.203125 208.5 199.664062 208.503906 200.144531 Z M 188.011719 207.375 C 188.011719 207.695312 187.953125 208 187.828125 208.296875 C 187.707031 208.59375 187.53125 208.851562 187.308594 209.078125 C 187.082031 209.304688 186.820312 209.480469 186.523438 209.601562 C 186.230469 209.722656 185.921875 209.785156 185.601562 209.785156 C 185.28125 209.785156 184.976562 209.722656 184.679688 209.601562 C 184.386719 209.480469 184.125 209.304688 183.898438 209.078125 C 183.671875 208.851562 183.496094 208.59375 183.375 208.296875 C 183.253906 208 183.191406 207.695312 183.191406 207.375 C 183.191406 207.054688 183.253906 206.746094 183.375 206.453125 C 183.496094 206.15625 183.671875 205.894531 183.898438 205.667969 C 184.125 205.445312 184.386719 205.269531 184.679688 205.148438 C 184.976562 205.023438 185.28125 204.964844 185.601562 204.964844 C 185.921875 204.964844 186.230469 205.023438 186.523438 205.148438 C 186.820312 205.269531 187.082031 205.445312 187.308594 205.667969 C 187.53125 205.894531 187.707031 206.15625 187.828125 206.453125 C 187.953125 206.746094 188.011719 207.054688 188.011719 207.375 Z M 202.476562 207.375 C 202.476562 207.695312 202.414062 208 202.292969 208.296875 C 202.171875 208.59375 201.996094 208.851562 201.769531 209.078125 C 201.542969 209.304688 201.285156 209.480469 200.988281 209.601562 C 200.691406 209.722656 200.386719 209.785156 200.066406 209.785156 C 199.746094 209.785156 199.4375 209.722656 199.144531 209.601562 C 198.847656 209.480469 198.585938 209.304688 198.359375 209.078125 C 198.136719 208.851562 197.960938 208.59375 197.839844 208.296875 C 197.714844 208 197.65625 207.695312 197.65625 207.375 C 197.65625 207.054688 197.714844 206.746094 197.839844 206.453125 C 197.960938 206.15625 198.136719 205.894531 198.359375 205.667969 C 198.585938 205.445312 198.847656 205.269531 199.144531 205.148438 C 199.4375 205.023438 199.746094 204.964844 200.066406 204.964844 C 200.386719 204.964844 200.691406 205.023438 200.988281 205.148438 C 201.285156 205.269531 201.542969 205.445312 201.769531 205.667969 C 201.996094 205.894531 202.171875 206.15625 202.292969 206.453125 C 202.414062 206.746094 202.476562 207.054688 202.476562 207.375 Z M 169.933594 202.554688 L 169.933594 212.195312 C 169.933594 212.355469 169.902344 212.507812 169.84375 212.65625 C 169.78125 212.804688 169.695312 212.933594 169.582031 213.046875 C 169.46875 213.160156 169.335938 213.246094 169.191406 213.308594 C 169.042969 213.371094 168.890625 213.402344 168.730469 213.402344 C 168.570312 213.402344 168.414062 213.371094 168.269531 213.308594 C 168.121094 213.246094 167.988281 213.160156 167.875 213.046875 C 167.765625 212.933594 167.675781 212.804688 167.617188 212.65625 C 167.554688 212.507812 167.523438 212.355469 167.523438 212.195312 L 167.523438 202.554688 C 167.523438 202.394531 167.554688 202.238281 167.617188 202.09375 C 167.675781 201.945312 167.765625 201.8125 167.875 201.699219 C 167.988281 201.589844 168.121094 201.5 168.269531 201.441406 C 168.414062 201.378906 168.570312 201.347656 168.730469 201.347656 C 168.890625 201.347656 169.042969 201.378906 169.191406 201.441406 C 169.335938 201.5 169.46875 201.589844 169.582031 201.699219 C 169.695312 201.8125 169.78125 201.945312 169.84375 202.09375 C 169.902344 202.238281 169.933594 202.394531 169.933594 202.554688 Z M 218.144531 202.554688 L 218.144531 212.195312 C 218.144531 212.355469 218.113281 212.507812 218.054688 212.65625 C 217.992188 212.804688 217.90625 212.933594 217.792969 213.046875 C 217.679688 213.160156 217.546875 213.246094 217.402344 213.308594 C 217.253906 213.371094 217.097656 213.402344 216.9375 213.402344 C 216.78125 213.402344 216.625 213.371094 216.476562 213.308594 C 216.332031 213.246094 216.199219 213.160156 216.085938 213.046875 C 215.972656 212.933594 215.886719 212.804688 215.824219 212.65625 C 215.765625 212.507812 215.734375 212.355469 215.734375 212.195312 L 215.734375 202.554688 C 215.734375 202.394531 215.765625 202.238281 215.824219 202.09375 C 215.886719 201.945312 215.972656 201.8125 216.085938 201.699219 C 216.199219 201.589844 216.332031 201.5 216.476562 201.441406 C 216.625 201.378906 216.78125 201.347656 216.9375 201.347656 C 217.097656 201.347656 217.253906 201.378906 217.402344 201.441406 C 217.546875 201.5 217.679688 201.589844 217.792969 201.699219 C 217.90625 201.8125 217.992188 201.945312 218.054688 202.09375 C 218.113281 202.238281 218.144531 202.394531 218.144531 202.554688 Z M 218.144531 202.554688 "/></g></g></svg>