<svg width="13" height="19" viewBox="0 0 13 19" fill="none" xmlns="http://www.w3.org/2000/svg">
<path d="M7.30234 17.7558C9.03906 15.5823 13 10.3146 13 7.35576C13 3.76722 10.0885 0.855762 6.5 0.855762C2.91146 0.855762 0 3.76722 0 7.35576C0 10.3146 3.96094 15.5823 5.69766 17.7558C6.11406 18.2737 6.88594 18.2737 7.30234 17.7558ZM6.5 5.1891C7.07464 5.1891 7.62574 5.41737 8.03207 5.8237C8.43839 6.23003 8.66667 6.78113 8.66667 7.35576C8.66667 7.9304 8.43839 8.4815 8.03207 8.88783C7.62574 9.29416 7.07464 9.52243 6.5 9.52243C5.92536 9.52243 5.37426 9.29416 4.96794 8.88783C4.56161 8.4815 4.33333 7.9304 4.33333 7.35576C4.33333 6.78113 4.56161 6.23003 4.96794 5.8237C5.37426 5.41737 5.92536 5.1891 6.5 5.1891Z" fill="white"/>
</svg>
