<svg width="28" height="19" viewBox="0 0 28 19" fill="none" xmlns="http://www.w3.org/2000/svg">
<path d="M7.50098 9.5C8.63762 9.5 9.72771 9.04847 10.5314 8.24475C11.3352 7.44102 11.7867 6.35093 11.7867 5.21429C11.7867 4.07765 11.3352 2.98756 10.5314 2.18383C9.72771 1.3801 8.63762 0.928574 7.50098 0.928574C6.36433 0.928574 5.27425 1.3801 4.47052 2.18383C3.66679 2.98756 3.21526 4.07765 3.21526 5.21429C3.21526 6.35093 3.66679 7.44102 4.47052 8.24475C5.27425 9.04847 6.36433 9.5 7.50098 9.5ZM5.97084 11.1071C2.67285 11.1071 0.000976562 13.779 0.000976562 17.077C0.000976562 17.6261 0.446289 18.0714 0.995396 18.0714H14.0066C14.5557 18.0714 15.001 17.6261 15.001 17.077C15.001 13.779 12.3291 11.1071 9.03111 11.1071H5.97084Z" fill="white"/>
<path d="M17.0007 8.0945L21.9083 13.0021L27.0028 7.90762" stroke="white" stroke-width="1.5"/>
</svg>
