<svg width="20" height="20" viewBox="0 0 20 20" fill="none" xmlns="http://www.w3.org/2000/svg">
<path d="M11.6668 6.66667H3.88905C3.74171 6.66667 3.6004 6.60814 3.49621 6.50395C3.39203 6.39976 3.3335 6.25846 3.3335 6.11111V3.88889C3.3335 3.74155 3.39203 3.60024 3.49621 3.49605C3.6004 3.39187 3.74171 3.33334 3.88905 3.33334H11.6668C11.8142 3.33334 11.9555 3.39187 12.0597 3.49605C12.1639 3.60024 12.2224 3.74155 12.2224 3.88889V6.11111C12.2224 6.25846 12.1639 6.39976 12.0597 6.50395C11.9555 6.60814 11.8142 6.66667 11.6668 6.66667ZM4.44461 5.55556H11.1113V4.41111H4.44461V5.55556Z" fill="black"/>
<path d="M11.6668 7.82222H3.88905C3.74171 7.82222 3.6004 7.88075 3.49621 7.98494C3.39203 8.08913 3.3335 8.23043 3.3335 8.37778V10.5556C3.3335 10.7029 3.39203 10.8442 3.49621 10.9484C3.6004 11.0526 3.74171 11.1111 3.88905 11.1111H10.2002L12.2224 9.05555V8.37778C12.2224 8.23043 12.1639 8.08913 12.0597 7.98494C11.9555 7.88075 11.8142 7.82222 11.6668 7.82222ZM11.1113 10H4.44461V8.88889H11.1113V10Z" fill="black"/>
<path d="M6.14466 17.5056V17.4722L6.32244 16.7H2.22244V2.22223H13.3335V7.91667L14.4447 6.86667V1.66667C14.4447 1.51933 14.3861 1.37802 14.2819 1.27383C14.1778 1.16965 14.0364 1.11111 13.8891 1.11111H1.66688C1.51954 1.11111 1.37823 1.16965 1.27405 1.27383C1.16986 1.37802 1.11133 1.51933 1.11133 1.66667V17.2222C1.11133 17.3696 1.16986 17.5109 1.27405 17.6151C1.37823 17.7192 1.51954 17.7778 1.66688 17.7778H6.11133C6.11583 17.6864 6.12697 17.5954 6.14466 17.5056Z" fill="black"/>
<path d="M12.2219 10.65L11.7886 11.0889C11.8961 11.0667 11.9946 11.0132 12.0717 10.9351C12.1489 10.857 12.2011 10.7578 12.2219 10.65Z" fill="black"/>
<path d="M3.3335 14.9667C3.3335 15.114 3.39203 15.2553 3.49621 15.3595C3.6004 15.4637 3.74171 15.5222 3.88905 15.5222H6.57794L6.74461 14.8L6.81683 14.4944V14.4667H4.44461V13.3333H7.96683L9.07794 12.2222H3.88905C3.74171 12.2222 3.6004 12.2808 3.49621 12.3849C3.39203 12.4891 3.3335 12.6304 3.3335 12.7778V14.9667Z" fill="black"/>
<path d="M18.6055 9.2611L16.7332 7.38888C16.6502 7.30556 16.5514 7.23946 16.4428 7.19436C16.3341 7.14925 16.2176 7.12604 16.0999 7.12604C15.9822 7.12604 15.8657 7.14925 15.7571 7.19436C15.6484 7.23946 15.5497 7.30556 15.4666 7.38888L7.84991 15.05L7.22213 17.7222C7.19863 17.8375 7.1981 17.9563 7.22058 18.0718C7.24305 18.1873 7.28809 18.2972 7.35312 18.3952C7.41814 18.4933 7.50187 18.5775 7.59951 18.6432C7.69716 18.7088 7.80679 18.7546 7.92213 18.7778C7.9794 18.7833 8.03708 18.7833 8.09435 18.7778C8.16246 18.7884 8.2318 18.7884 8.29991 18.7778L10.9944 18.1833L18.6055 10.5555C18.6886 10.4729 18.7546 10.3747 18.7996 10.2665C18.8447 10.1583 18.8678 10.0422 18.8678 9.92499C18.8678 9.80778 18.8447 9.69173 18.7996 9.58351C18.7546 9.47529 18.6886 9.37705 18.6055 9.29444V9.2611ZM10.4277 17.1722L8.39435 17.6222L8.8888 15.6055L14.5999 9.83333L16.1666 11.4L10.4277 17.1722ZM16.7944 10.7722L15.2277 9.20555L16.111 8.33333L17.6888 9.9111L16.7944 10.7722Z" fill="black"/>
</svg>
