<svg width="806" height="521" viewBox="0 0 806 521" fill="none" xmlns="http://www.w3.org/2000/svg">
<path d="M156.65 113.708C121.116 148.524 100.457 190.033 100.457 234.625C100.457 296.343 140.025 352.146 203.845 392.494C267.672 432.846 355.817 457.787 453.153 457.787C523.669 457.787 589.357 444.695 644.47 422.141C581.325 481.389 474.159 520.405 352.525 520.405C255.349 520.405 167.396 495.502 103.752 455.266C40.103 415.026 0.829786 359.497 0.82959 298.243C0.82959 221.445 62.5742 153.639 156.65 113.708Z" fill="white" stroke="black"/>
<path opacity="0.5" d="M453.159 12.4644C550.335 12.4644 638.288 37.3671 701.931 77.603C765.581 117.843 804.854 173.373 804.854 234.627C804.854 311.424 743.109 379.23 649.034 419.161C684.567 384.344 705.227 342.836 705.227 298.245C705.227 236.526 665.658 180.724 601.838 140.376C538.012 100.025 449.867 75.0825 352.531 75.0825C282.014 75.0826 216.325 88.1726 161.212 110.727C224.358 51.479 331.525 12.4644 453.159 12.4644Z" fill="white" stroke="black"/>
<path d="M412.689 58.6664C407.632 53.6115 400.775 50.7717 393.625 50.7717C386.475 50.7717 379.618 53.6115 374.561 58.6664L222.296 210.905C219.764 213.437 218.342 216.87 218.342 220.451C218.342 224.031 219.764 227.464 222.296 229.996C224.827 232.527 228.261 233.95 231.841 233.95C235.421 233.95 238.855 232.527 241.386 229.996L245.323 226.032V368.753C245.323 379.48 249.584 389.767 257.169 397.352C264.754 404.938 275.042 409.199 285.769 409.199H300.599C299.698 404.761 299.246 400.245 299.251 395.717V285.569C292.81 283.289 287.051 279.416 282.513 274.309C277.974 269.202 274.802 263.029 273.295 256.365C271.787 249.702 271.992 242.764 273.89 236.201C275.789 229.638 279.319 223.663 284.151 218.833L428.489 74.4674L412.689 58.6664Z" fill="#6BBB28" stroke="white" stroke-width="2"/>
<path d="M434.977 85.55C440.034 80.495 446.891 77.6553 454.041 77.6553C461.191 77.6553 468.048 80.495 473.105 85.55L521.451 133.896V99.032C521.451 95.4563 522.871 92.0271 525.4 89.4988C527.928 86.9704 531.357 85.55 534.933 85.55H561.897C565.473 85.55 568.902 86.9704 571.43 89.4988C573.959 92.0271 575.379 95.4563 575.379 99.032V187.825L625.37 237.789C627.902 240.32 629.324 243.754 629.324 247.334C629.324 250.914 627.902 254.348 625.37 256.879C622.839 259.411 619.405 260.833 615.825 260.833C612.245 260.833 608.811 259.411 606.28 256.879L602.343 252.916V395.636C602.343 406.363 598.082 416.651 590.497 424.236C582.912 431.821 572.624 436.082 561.897 436.082H346.185C335.458 436.082 325.17 431.821 317.585 424.236C310 416.651 305.739 406.363 305.739 395.636V252.916L301.802 256.879C300.549 258.133 299.06 259.127 297.423 259.806C295.785 260.484 294.03 260.833 292.257 260.833C290.484 260.833 288.729 260.484 287.091 259.806C285.453 259.127 283.965 258.133 282.712 256.879C281.458 255.626 280.464 254.138 279.785 252.5C279.107 250.862 278.758 249.107 278.758 247.334C278.758 245.561 279.107 243.806 279.785 242.168C280.464 240.53 281.458 239.042 282.712 237.789L434.977 85.55Z" fill="#F39C13" stroke="white" stroke-width="2"/>
<path d="M350.82 28.4687C345.763 23.4137 338.906 20.574 331.756 20.574C324.606 20.574 317.749 23.4137 312.693 28.4687L160.427 180.708C157.895 183.239 156.473 186.673 156.473 190.253C156.473 193.833 157.895 197.267 160.427 199.798C162.958 202.33 166.392 203.752 169.972 203.752C173.552 203.752 176.986 202.33 179.517 199.798L183.454 195.834V338.555C183.454 349.282 187.715 359.57 195.301 367.155C202.886 374.74 213.173 379.001 223.9 379.001H238.73C237.829 374.564 237.378 370.047 237.382 365.519V255.371C230.941 253.092 225.183 249.218 220.644 244.111C216.105 239.005 212.934 232.831 211.426 226.168C209.918 219.504 210.123 212.567 212.022 206.003C213.92 199.44 217.45 193.465 222.282 188.635L366.621 44.2696L350.82 28.4687Z" fill="#0294D9" stroke="white" stroke-width="2"/>
<path d="M493.648 16.2004C495.76 10.0205 504.302 9.80918 506.826 15.6008L507.062 16.2278L510.518 26.3333V26.3342C511.381 28.8602 512.776 31.1714 514.608 33.1125C516.441 35.0536 518.668 36.5791 521.14 37.5862L521.16 37.595L521.182 37.6028L522.112 37.9504L522.133 37.9573L522.152 37.9641L532.281 41.4241C538.461 43.5363 538.671 52.0793 532.884 54.6028L532.258 54.8381L522.151 58.2942C519.625 59.1568 517.314 60.5519 515.372 62.384C513.43 64.2163 511.904 66.4439 510.896 68.9163L510.888 68.9368L510.881 68.9563L510.533 69.8831L510.525 69.9045L510.518 69.925L507.059 80.0588C504.944 86.2469 496.385 86.4492 493.876 80.6438L493.635 80.0198L490.189 69.929C489.327 67.4023 487.932 65.0905 486.1 63.1487C484.267 61.2068 482.04 59.6797 479.567 58.6721L479.548 58.6643L479.528 58.6575L478.602 58.3098L478.58 58.302L478.56 58.2942L468.431 54.8352C462.239 52.7204 462.036 44.1607 467.845 41.6516L468.461 41.4133L478.56 37.9641C481.085 37.101 483.397 35.7066 485.338 33.8743C487.279 32.0418 488.804 29.8142 489.812 27.342L489.827 27.303L490.175 26.3762L490.183 26.3547L490.189 26.3333L493.648 16.2004ZM534.688 2.41626H534.688C535.211 2.41626 535.723 2.56274 536.166 2.83911C536.6 3.10967 536.95 3.49434 537.181 3.95044L537.342 4.34399L538.831 8.71021L539.069 9.40747L539.768 9.64575L544.175 11.1477L544.176 11.1487C544.699 11.3265 545.159 11.6551 545.495 12.094C545.831 12.5328 546.029 13.0619 546.064 13.6135C546.1 14.1653 545.97 14.7154 545.692 15.1936C545.422 15.6597 545.022 16.0357 544.542 16.2795L544.133 16.4465L539.771 17.9358L539.073 18.1731L538.836 18.8713L537.333 23.2795C537.155 23.8029 536.826 24.262 536.387 24.5979C535.948 24.9337 535.419 25.1312 534.867 25.1663C534.316 25.2012 533.766 25.0718 533.288 24.7942C532.818 24.5212 532.439 24.1166 532.195 23.6311L532.029 23.2258L530.546 18.8752L530.309 18.177L529.61 17.9397L525.202 16.4377L525.201 16.4368C524.678 16.259 524.219 15.9302 523.883 15.4915C523.547 15.0527 523.349 14.5235 523.313 13.9719C523.278 13.4202 523.407 12.87 523.685 12.3918C523.957 11.9224 524.36 11.5428 524.845 11.2991L525.243 11.137L529.606 9.64966L530.304 9.41138L530.542 8.71411L532.044 4.30688C532.232 3.75522 532.588 3.27574 533.062 2.93677C533.537 2.59789 534.105 2.41598 534.688 2.41626Z" fill="#F39C13" stroke="#FFFDFD" stroke-width="3"/>
<path d="M504.983 333.875C505.258 323.208 504.242 312.494 502.001 301.883L489.407 304.717C490.069 309.58 490.43 314.489 490.303 319.4L490.245 321.666H477.95V333.875H504.983ZM428.679 333.875V321.666H417.255L417.198 319.399C417.071 314.493 417.326 309.584 417.959 304.716L405.494 301.894C403.242 312.507 402.246 323.205 402.518 333.875L428.679 333.875ZM461.442 333.538V322.143H445.252V333.537L461.442 333.538ZM473.299 329.631V317.015H485.653C485.632 312.455 485.231 307.861 484.518 303.274L484.184 301.125L496.681 298.314C495.891 294.903 494.963 291.526 493.901 288.19L483.673 289.733L471.029 263.087L478.929 256.001C477.143 253.126 475.266 250.308 473.301 247.551L462.725 255.382L461.323 253.662C458.92 250.715 456.367 247.796 453.667 244.969C450.961 247.771 448.412 250.591 446.035 253.514L444.636 255.236L434.228 247.55C432.248 250.333 430.357 253.178 428.557 256.08L436.367 263.086L423.724 289.732L413.613 288.208C412.547 291.544 411.616 294.921 410.821 298.331L423.174 301.129L422.838 303.276C422.128 307.821 421.828 312.427 421.837 317.015H433.331V329.631H440.602V317.491L466.094 317.491V329.631H473.3L473.299 329.631ZM476.762 309.908L430.62 309.908L430.565 307.639C430.13 289.461 437.511 273.301 451.996 257.889L453.688 256.09L455.383 257.886C469.956 273.332 477.257 289.481 476.817 307.639L476.762 309.908ZM472.163 305.257C471.959 290.029 465.917 276.484 453.694 262.934C441.537 276.46 435.435 290.024 435.221 305.257L472.163 305.257ZM486.393 284.618L499.886 282.584L486.861 255.133L476.719 264.23L486.393 284.618ZM421.001 284.618L430.675 264.23L420.533 255.133L407.509 282.584L421.001 284.618ZM463.494 249.026L474.121 241.157C468.17 233.016 461.352 225.104 453.677 217.456C446.029 225.106 439.317 232.995 433.382 241.145L443.872 248.892C446.426 245.85 449.096 242.875 452.033 239.938L453.675 238.296L455.319 239.935C458.288 242.894 460.954 245.969 463.494 249.026Z" fill="white"/>
</svg>
