<svg width="33" height="33" viewBox="0 0 33 33" fill="none" xmlns="http://www.w3.org/2000/svg">
<rect width="33" height="33" rx="9" fill="#08B786"/>
<path d="M15.6977 24.6483C17.4055 24.6479 19.0642 24.0613 20.4096 22.9818L24.6394 27.3217L26 25.9258L21.7701 21.5858C22.8228 20.2053 23.3949 18.503 23.3953 16.7502C23.3953 12.3954 19.9419 8.85217 15.6977 8.85217C11.4534 8.85217 8 12.3954 8 16.7502C8 21.105 11.4534 24.6483 15.6977 24.6483ZM15.6977 10.8267C18.8816 10.8267 21.4709 13.4834 21.4709 16.7502C21.4709 20.017 18.8816 22.6737 15.6977 22.6737C12.5137 22.6737 9.92441 20.017 9.92441 16.7502C9.92441 13.4834 12.5137 10.8267 15.6977 10.8267Z" fill="white"/>
</svg>
