<svg width="39" height="41" viewBox="0 0 39 41" fill="none" xmlns="http://www.w3.org/2000/svg">
<rect y="2.62646" width="37.6452" height="37.6452" rx="9" fill="#0093DD"/>
<g clip-path="url(#clip0_80_1330)">
<path d="M25.6668 12.4047L8.04481 16.048C6.5638 16.3525 6.18141 18.2951 7.43698 19.139L13.9822 23.5684C14.2518 23.7537 14.4542 23.9953 14.5895 24.2931L17.8067 31.5118C18.4182 32.8955 20.3976 32.8586 20.9564 31.4536L27.6238 14.7397C27.7361 14.4529 27.7691 14.1411 27.7194 13.8371C27.6696 13.5331 27.5389 13.248 27.3411 13.0119C27.1432 12.7758 26.8854 12.5974 26.5948 12.4953C26.3041 12.3931 25.9913 12.3711 25.6893 12.4316L25.6668 12.4047Z" fill="white"/>
</g>
<defs>
<clipPath id="clip0_80_1330">
<rect width="26.2641" height="28.0151" fill="white" transform="translate(0.875488 16.8706) rotate(-39.9666)"/>
</clipPath>
</defs>
</svg>
