<svg width="159" height="159" viewBox="0 0 159 159" fill="none" xmlns="http://www.w3.org/2000/svg">
<path d="M23.3962 141.58L56.1291 151.926C57.2748 152.288 58.4844 152.368 59.6444 152.183C60.8043 151.999 61.9296 151.548 62.9067 150.849L87.7026 133.099L116.777 142.284C117.924 142.654 119.134 142.734 120.293 142.55C121.453 142.366 122.579 141.915 123.556 141.215L151.472 121.236C153.837 119.539 155.043 116.659 154.587 113.785L148.565 75.8796C148.109 73.0064 146.07 70.641 143.295 69.7604L115.088 60.849L109.811 27.6285C109.355 24.7552 107.316 22.3898 104.541 21.5093L71.8084 11.1638C69.5083 10.4333 66.9913 10.8331 65.0233 12.2416L37.1071 32.2207C34.7494 33.9165 33.5437 36.7973 34.0001 39.6706L39.2769 72.8911L15.2208 90.1119C12.8543 91.8013 11.6486 94.6821 12.105 97.5554L18.126 135.461C18.5824 138.334 20.6215 140.7 23.3962 141.58ZM48.9486 84.8477L67.4754 90.7033L47.1461 105.257L28.6193 99.4013L48.9486 84.8477ZM76.2626 61.0781L97.1997 46.0937L99.926 63.2574L78.9889 78.2418L76.2626 61.0781ZM128.125 81.0696L108.011 95.4645L89.4841 89.609L109.598 75.2141L128.125 81.0696ZM57.0938 136.127L56.5865 135.966L53.936 119.28L75.3046 103.979L78.0309 121.142L57.0938 136.127ZM117.743 126.493L115.017 109.329L135.954 94.3449L138.68 111.509L117.743 126.493ZM70.8437 26.9629L89.3705 32.8185L69.257 47.2134L50.7301 41.3579L70.8437 26.9629Z" fill="white" fill-opacity="0.36"/>
</svg>
