<svg width="17" height="17" viewBox="0 0 17 17" fill="none" xmlns="http://www.w3.org/2000/svg">
<path d="M8.5 13.2222C8.76759 13.2222 8.99206 13.1316 9.17339 12.9502C9.35472 12.7689 9.44507 12.5447 9.44444 12.2778C9.44381 12.0108 9.35315 11.7867 9.17244 11.6053C8.99174 11.424 8.76759 11.3333 8.5 11.3333C8.23241 11.3333 8.00826 11.424 7.82756 11.6053C7.64685 11.7867 7.55618 12.0108 7.55556 12.2778C7.55493 12.5447 7.64559 12.7692 7.82756 12.9512C8.00952 13.1331 8.23367 13.2235 8.5 13.2222ZM7.55556 9.44444H9.44444V3.77778H7.55556V9.44444ZM4.95833 17L0 12.0417V4.95833L4.95833 0H12.0417L17 4.95833V12.0417L12.0417 17H4.95833Z" fill="white"/>
</svg>
