<svg width="55" height="55" viewBox="0 0 55 55" fill="none" xmlns="http://www.w3.org/2000/svg">
<circle cx="27.5" cy="27.5" r="27.5" fill="#D9D9D9"/>
<path d="M27.5 27.5C25.6094 27.5 23.9909 26.8268 22.6445 25.4805C21.2982 24.1341 20.625 22.5156 20.625 20.625C20.625 18.7344 21.2982 17.1159 22.6445 15.7695C23.9909 14.4232 25.6094 13.75 27.5 13.75C29.3906 13.75 31.0091 14.4232 32.3555 15.7695C33.7018 17.1159 34.375 18.7344 34.375 20.625C34.375 22.5156 33.7018 24.1341 32.3555 25.4805C31.0091 26.8268 29.3906 27.5 27.5 27.5ZM13.75 41.25V36.4375C13.75 35.4635 14.0009 34.5686 14.5028 33.7528C15.0047 32.937 15.6704 32.3136 16.5 31.8828C18.276 30.9948 20.0807 30.3291 21.9141 29.8856C23.7474 29.4422 25.6094 29.2199 27.5 29.2188C29.3906 29.2176 31.2526 29.4399 33.0859 29.8856C34.9193 30.3314 36.724 30.9971 38.5 31.8828C39.3307 32.3125 39.997 32.9358 40.4989 33.7528C41.0008 34.5698 41.2511 35.4647 41.25 36.4375V41.25H13.75Z" fill="black"/>
</svg>
