<svg width="16" height="14" viewBox="0 0 16 14" fill="none" xmlns="http://www.w3.org/2000/svg">
<path d="M9.59375 0.0881256C9.23438 0.247493 9 0.606852 9 1.00058V3.00049H5.5C2.4625 3.00049 0 5.46288 0 8.50025C0 12.0407 2.54687 13.6219 3.13125 13.9406C3.20937 13.9844 3.29688 14 3.38438 14C3.725 14 4 13.7219 4 13.3844C4 13.15 3.86562 12.9344 3.69375 12.7751C3.4 12.4969 3 11.9501 3 11.0001C3 9.34396 4.34375 8.00027 6 8.00027H9V10.0002C9 10.3939 9.23125 10.7533 9.59375 10.9126C9.95625 11.072 10.375 11.0064 10.6687 10.7439L15.6687 6.2441C15.8781 6.05348 16 5.78474 16 5.50038C16 5.21602 15.8812 4.94728 15.6687 4.75667L10.6687 0.256868C10.375 -0.00874501 9.95312 -0.0743671 9.59375 0.0881256Z" fill="black"/>
</svg>
