<svg width="18" height="13" viewBox="0 0 18 13" fill="none" xmlns="http://www.w3.org/2000/svg">
<path d="M1.2276 2.78199V11.9737H16.7724V2.78199H1.2276ZM0.8181 0H17.1819C17.6337 0 18 0.305881 18 0.68441V12.3155C17.9994 12.4063 17.9777 12.496 17.9362 12.5795C17.8947 12.6631 17.8341 12.7388 17.758 12.8024C17.6819 12.8661 17.5917 12.9162 17.4927 12.9501C17.3937 12.984 17.2877 13.001 17.181 13H0.819C0.3663 13 0 12.6941 0 12.3155V0.68441C0 0.305881 0.3663 0 0.819 0M5.5233 1.34511C5.5233 1.06217 5.7987 0.831997 6.1371 0.831997C6.4755 0.831997 6.7509 1.06141 6.7509 1.34511V11.9737C6.7509 12.2567 6.4764 12.4861 6.1371 12.4861C6.0572 12.4867 5.97795 12.4739 5.90386 12.4485C5.82977 12.4231 5.7623 12.3855 5.70531 12.3379C5.64831 12.2903 5.6029 12.2337 5.57167 12.1712C5.54044 12.1087 5.52401 12.0416 5.5233 11.9737V1.34511ZM11.7873 0.855703C12.1266 0.855703 12.4011 1.08511 12.4011 1.36805V5.18775H16.8201C17.1594 5.18775 17.4348 5.41792 17.4348 5.70163C17.4348 5.98457 17.1594 6.21474 16.821 6.21474L12.4011 6.21398V8.5555H16.9029C17.2422 8.5555 17.5167 8.78491 17.5167 9.06862C17.5167 9.35156 17.2422 9.58173 16.9029 9.58173H12.4011V11.9967C12.4005 12.0646 12.3842 12.1318 12.353 12.1944C12.3218 12.257 12.2764 12.3137 12.2194 12.3614C12.1624 12.409 12.0949 12.4467 12.0207 12.4721C11.9466 12.4976 11.8673 12.5104 11.7873 12.5098C11.6261 12.5108 11.471 12.4574 11.3561 12.3614C11.2412 12.2653 11.1758 12.1344 11.1744 11.9974L11.1735 9.58173H0.9009C0.821003 9.58234 0.741748 9.56957 0.667661 9.54414C0.593573 9.51872 0.526105 9.48115 0.469108 9.43358C0.41211 9.386 0.366701 9.32935 0.335472 9.26686C0.304243 9.20437 0.287806 9.13727 0.2871 9.06938C0.2871 8.78568 0.5616 8.5555 0.9009 8.5555H11.1726V6.21398L0.8181 6.21474C0.738128 6.21535 0.6588 6.20255 0.584654 6.17708C0.510509 6.15161 0.443 6.11397 0.385991 6.06632C0.328982 6.01866 0.283591 5.96192 0.252415 5.89934C0.221238 5.83676 0.204888 5.76958 0.2043 5.70163C0.2043 5.41869 0.4797 5.18851 0.8181 5.18851L11.1726 5.18775V1.36805C11.1726 1.08511 11.448 0.855703 11.7864 0.855703" fill="#16604B"/>
</svg>
