<svg width="43" height="46" viewBox="0 0 43 46" fill="none" xmlns="http://www.w3.org/2000/svg">
<path fill-rule="evenodd" clip-rule="evenodd" d="M27.4905 15.5476C22.5516 17.0379 17.3157 17.0387 12.3763 15.5501C10.2208 18.0372 8.40955 20.8332 6.9962 23.8551C5.50304 27.1026 4.81571 30.0927 4.94132 32.4552C5.05983 34.6027 5.82063 36.2727 7.61954 37.5852C9.62938 39.0527 13.3789 40.3802 19.9915 40.3802C22.8474 40.3802 25.163 40.1277 27.033 39.7202L31.2186 43.6777C28.3532 44.7602 24.6629 45.3777 19.9915 45.3777C-8.40471 45.3777 -0.81802 22.9301 9.35919 11.6326L5.01242 4.88263C5.87626 4.30417 6.77844 3.79201 7.71197 3.35013C8.20179 3.1118 8.73032 2.8743 9.29757 2.63763C12.1464 1.45513 15.9338 0.382629 19.9915 0.382629C23.8476 0.382629 27.4359 1.35013 30.2066 2.46263C30.3409 2.51263 30.472 2.56513 30.6 2.62013C32.5198 3.42013 34.013 4.27513 34.8757 4.88263L30.5005 11.6326C34.4633 15.9051 38.0706 22.0251 39.2746 27.8827H34.3922C33.9988 26.4409 33.4832 25.0394 32.8516 23.6951C31.4526 20.7168 29.6472 17.9709 27.4928 15.5451M25.1464 11.0276C21.7114 11.8717 18.1384 11.8709 14.7038 11.0251L14.0828 10.0601C16.2585 10.2751 18.5244 10.1801 20.6503 9.53264C22.7892 8.8757 24.9602 8.34158 27.1539 7.93264L25.1464 11.0276ZM29.8155 5.24763C27.3317 5.15763 23.722 5.40513 20.3636 5.80513C19.6928 5.88513 18.9936 6.02263 18.2779 6.16263C15.7134 6.66263 12.9736 7.20013 10.8547 5.24763C12.2104 4.88013 15.9481 4.15013 20.1858 4.13013H20.3636C24.6748 4.13013 28.4622 4.87513 29.8155 5.24763Z" fill="#F39C13"/>
<path d="M30.3105 39.4627L32.6806 36.6702L34.7971 38.6702V30.3827H38.3523V38.6677L40.4664 36.6677L42.8365 39.4602L36.5771 45.3827L30.3105 39.4627Z" fill="#F39C13"/>
<path fill-rule="evenodd" clip-rule="evenodd" d="M18.555 37.8827V36.5752C17.6814 36.4317 16.8607 36.0419 16.1799 35.4469C15.499 34.8519 14.9832 34.0739 14.687 33.1952C14.6048 32.962 14.5673 32.7138 14.5769 32.4652C14.5864 32.2166 14.6428 31.9725 14.7427 31.7471C14.8426 31.5217 14.984 31.3195 15.1588 31.1524C15.3335 30.9852 15.538 30.8564 15.7604 30.7735C15.9828 30.6905 16.2186 30.6551 16.4541 30.6692C16.6896 30.6834 16.9201 30.7468 17.1321 30.8559C17.3441 30.965 17.5334 31.1174 17.689 31.3044C17.8446 31.4915 17.9634 31.7093 18.0384 31.9452C18.1332 32.2352 18.318 32.4802 18.555 32.6452V30.0127C17.4007 29.8253 16.3481 29.2083 15.5877 28.2733C14.8272 27.3383 14.4092 26.1471 14.4092 24.9152C14.4092 23.6832 14.8272 22.492 15.5877 21.557C16.3481 20.622 17.4007 20.005 18.555 19.8177V18.5077H22.1102V19.8177C23.9115 20.1052 25.388 21.4327 25.9782 23.1952C26.0605 23.4284 26.0979 23.6765 26.0884 23.9251C26.0788 24.1737 26.0224 24.4178 25.9225 24.6432C25.8226 24.8686 25.6812 25.0708 25.5065 25.2379C25.3318 25.4051 25.1272 25.5339 24.9049 25.6169C24.6825 25.6998 24.4466 25.7352 24.2111 25.7211C23.9756 25.7069 23.7452 25.6435 23.5331 25.5344C23.3211 25.4254 23.1318 25.2729 22.9762 25.0859C22.8206 24.8989 22.7019 24.6811 22.6269 24.4452C22.5311 24.1589 22.3498 23.9132 22.1102 23.7452V26.3777C23.2661 26.5633 24.3207 27.1797 25.0828 28.1151C25.8448 29.0506 26.2638 30.2431 26.2638 31.4764C26.2638 32.7098 25.8448 33.9023 25.0828 34.8377C24.3207 35.7731 23.2661 36.3895 22.1102 36.5752V37.8827H18.555ZM22.7027 31.4777C22.7027 31.9627 22.4657 32.3927 22.1102 32.6452V30.3077C22.4657 30.5577 22.7027 30.9902 22.7027 31.4777ZM17.9625 24.9102C17.9625 24.4252 18.1995 23.9952 18.555 23.7427V26.0802C18.3726 25.9523 18.223 25.7787 18.1196 25.575C18.0163 25.3713 17.9623 25.1437 17.9625 24.9127" fill="#F39C13"/>
</svg>
