<svg width="74" height="67" viewBox="0 0 74 67" fill="none" xmlns="http://www.w3.org/2000/svg">
<path d="M52.0007 44.1667L61.534 49.8L59.034 53.8667L47.0007 46.6667V30H52.0007V44.1667ZM73.6673 43.3333C73.6673 56.2333 63.234 66.6667 50.334 66.6667C42.4007 66.6667 35.434 62.7 31.2007 56.6667H10.334V30H0.333984L33.6673 0L57.0007 20.9667C66.634 23.8333 73.6673 32.7667 73.6673 43.3333ZM27.9673 50C27.3673 47.9 27.0007 45.6667 27.0007 43.3333C27.0007 31.8 35.334 22.2667 46.334 20.3667L33.6673 8.96667L17.0007 23.9667V50H27.9673ZM67.0007 43.3333C67.0007 34.1333 59.534 26.6667 50.334 26.6667C41.134 26.6667 33.6673 34.1333 33.6673 43.3333C33.6673 52.5333 41.134 60 50.334 60C59.534 60 67.0007 52.5333 67.0007 43.3333Z" fill="#0093DD"/>
</svg>
