<svg width="56" height="56" viewBox="0 0 56 56" fill="none" xmlns="http://www.w3.org/2000/svg">
<path d="M27.9994 9.82332C30.8927 11.0133 34.1827 11.6667 37.3327 11.6667C39.7827 11.6667 42.2327 11.2933 44.5194 10.5933C43.166 12.8333 41.9994 15.6567 41.9994 18.6667C41.9994 21.7467 43.2594 25.5033 44.566 29.47C45.4994 32.27 46.666 35.77 46.666 37.3333C46.666 39.7367 38.4294 44.3333 27.9994 46.5733C17.5927 44.3333 9.33268 39.7367 9.33268 37.3333C9.33268 35.77 10.4993 32.27 11.4327 29.47C12.7393 25.5033 13.9993 21.7467 13.9993 18.6667C13.9993 15.6567 12.8327 12.8333 11.4793 10.5933C13.766 11.2933 16.2393 11.6667 18.666 11.6667C21.816 11.6667 25.106 11.0133 27.9994 9.82332ZM46.666 4.66666C43.9827 6.15999 40.5994 6.99999 37.3327 6.99999C34.066 6.99999 30.6594 6.13666 27.9994 4.66666C25.3394 6.13666 21.9327 6.99999 18.666 6.99999C15.3993 6.99999 12.016 6.15999 9.33268 4.66666L4.66602 9.33332C4.66602 9.33332 9.33268 14 9.33268 18.6667C9.33268 23.3333 4.66602 32.6667 4.66602 37.3333C4.66602 46.6667 27.9994 51.3333 27.9994 51.3333C27.9994 51.3333 51.3327 46.6667 51.3327 37.3333C51.3327 32.6667 46.666 23.3333 46.666 18.6667C46.666 14 51.3327 9.33332 51.3327 9.33332L46.666 4.66666ZM35.116 38.3833L27.9294 34.0433L20.766 38.3833L22.6794 30.2167L16.3327 24.7567L24.686 24.0333L27.9294 16.3333L31.196 24.01L39.5494 24.7333L33.2027 30.1933L35.116 38.3833Z" fill="#0093DD"/>
</svg>
