<svg width="56" height="56" viewBox="0 0 56 56" fill="none" xmlns="http://www.w3.org/2000/svg">
<path d="M17.5 31.5H31.5V35H17.5V31.5ZM17.5 22.75H38.5V26.25H17.5V22.75ZM17.5 40.25H26.25V43.75H17.5V40.25Z" fill="#0093DD"/>
<path d="M43.75 8.75H38.5V7C38.5 6.07174 38.1313 5.1815 37.4749 4.52513C36.8185 3.86875 35.9283 3.5 35 3.5H21C20.0717 3.5 19.1815 3.86875 18.5251 4.52513C17.8687 5.1815 17.5 6.07174 17.5 7V8.75H12.25C11.3217 8.75 10.4315 9.11875 9.77513 9.77513C9.11875 10.4315 8.75 11.3217 8.75 12.25V49C8.75 49.9283 9.11875 50.8185 9.77513 51.4749C10.4315 52.1313 11.3217 52.5 12.25 52.5H43.75C44.6783 52.5 45.5685 52.1313 46.2249 51.4749C46.8813 50.8185 47.25 49.9283 47.25 49V12.25C47.25 11.3217 46.8813 10.4315 46.2249 9.77513C45.5685 9.11875 44.6783 8.75 43.75 8.75ZM21 7H35V14H21V7ZM43.75 49H12.25V12.25H17.5V17.5H38.5V12.25H43.75V49Z" fill="#0093DD"/>
</svg>
