<svg width="45" height="45" viewBox="0 0 45 45" fill="none" xmlns="http://www.w3.org/2000/svg">
<path d="M5 45H40C41.3261 45 42.5979 44.5259 43.5355 43.6819C44.4732 42.838 45 41.6934 45 40.4999V15.7493C45 15.1526 44.7366 14.5803 44.2678 14.1583C43.7989 13.7363 43.163 13.4993 42.5 13.4993H35V11.751C35 5.8806 30.2425 0.624477 23.75 0.0552139C22.0122 -0.100237 20.2575 0.0734413 18.5987 0.565076C16.94 1.05671 15.4139 1.85541 14.1188 2.9098C12.8237 3.96418 11.7881 5.2509 11.0787 6.68717C10.3694 8.12344 10.0019 9.67745 10 11.2492V13.4993H2.5C1.83696 13.4993 1.20107 13.7363 0.732233 14.1583C0.263392 14.5803 0 15.1526 0 15.7493V40.4999C0 41.6934 0.526784 42.838 1.46447 43.6819C2.40215 44.5259 3.67392 45 5 45ZM35 17.9994V22.4995H30V17.9994H35ZM15 11.2492C15 7.52764 18.365 4.49907 22.5 4.49907C26.635 4.49907 30 7.52764 30 11.2492V13.4993H15V11.2492ZM10 17.9994H15V22.4995H10V17.9994Z" fill="#08B786"/>
</svg>
