<svg width="49" height="45" viewBox="0 0 49 45" fill="none" xmlns="http://www.w3.org/2000/svg">
<path d="M26.778 0.955238C26.1662 0.3436 25.3365 0 24.4714 0C23.6063 0 22.7766 0.3436 22.1647 0.955238L0.478397 22.6383C0.326726 22.79 0.206415 22.97 0.124331 23.1682C0.0422478 23.3664 0 23.5788 0 23.7933C0 24.0078 0.0422478 24.2202 0.124331 24.4183C0.206415 24.6165 0.326726 24.7966 0.478397 24.9482C0.784709 25.2545 1.20016 25.4266 1.63335 25.4266C1.84784 25.4266 2.06024 25.3844 2.2584 25.3023C2.45657 25.2202 2.63663 25.0999 2.7883 24.9482L24.4714 3.26188L46.1544 24.9482C46.4608 25.2545 46.8762 25.4266 47.3094 25.4266C47.7426 25.4266 48.158 25.2545 48.4644 24.9482C48.7707 24.6419 48.9427 24.2265 48.9427 23.7933C48.9427 23.3601 48.7707 22.9446 48.4644 22.6383L40.7842 14.9615V4.21781C40.7842 3.78517 40.6124 3.37025 40.3065 3.06432C40.0005 2.75839 39.5856 2.58653 39.153 2.58653H35.8904C35.4577 2.58653 35.0428 2.75839 34.7369 3.06432C34.431 3.37025 34.2591 3.78517 34.2591 4.21781V8.43632L26.778 0.955238Z" fill="#08B786"/>
<path d="M24.4717 6.80502L44.0471 26.3805V40.1061C44.0471 41.4041 43.5315 42.6488 42.6138 43.5666C41.696 44.4844 40.4512 45 39.1533 45H9.7901C8.49217 45 7.2474 44.4844 6.32962 43.5666C5.41184 42.6488 4.89624 41.4041 4.89624 40.1061V26.3805L24.4717 6.80502Z" fill="#08B786"/>
</svg>
