<svg width="43" height="46" viewBox="0 0 43 46" fill="none" xmlns="http://www.w3.org/2000/svg">
<path fill-rule="evenodd" clip-rule="evenodd" d="M27.4908 15.5476C22.5519 17.0378 17.316 17.0387 12.3767 15.5501C10.2213 18.0372 8.40999 20.8332 6.99665 23.8551C5.5035 27.1026 4.81617 30.0926 4.94178 32.4551C5.06029 34.6026 5.82109 36.2726 7.61998 37.5851C9.62982 39.0526 13.3793 40.3801 19.9918 40.3801C22.8478 40.3801 25.1634 40.1276 27.0334 39.7201L31.2189 43.6776C28.3535 44.7601 24.6633 45.3776 19.9918 45.3776C-8.40417 45.3776 -0.817526 22.9301 9.35963 11.6326L5.01289 4.88262C5.87672 4.30415 6.77889 3.79199 7.71242 3.35012C8.20223 3.11178 8.73076 2.87428 9.298 2.63762C12.1468 1.45511 15.9342 0.382614 19.9918 0.382614C23.848 0.382614 27.4363 1.35011 30.2069 2.46262C30.3412 2.51262 30.4724 2.56512 30.6003 2.62012C32.5201 3.42012 34.0133 4.27512 34.876 4.88262L30.5008 11.6326C34.4636 15.9051 38.0709 22.0251 39.2749 27.8826H34.3925C33.9991 26.4409 33.4835 25.0394 32.8519 23.6951C31.4529 20.7168 29.6475 17.9709 27.4932 15.5451M25.1468 11.0276C21.7118 11.8717 18.1388 11.8709 14.7042 11.0251L14.0832 10.0601C16.2589 10.2751 18.5248 10.1801 20.6507 9.53262C22.7895 8.87568 24.9606 8.34156 27.1542 7.93262L25.1468 11.0276ZM29.8158 5.24762C27.332 5.15762 23.7224 5.40512 20.3639 5.80512C19.6932 5.88512 18.994 6.02262 18.2783 6.16262C15.7138 6.66262 12.974 7.20012 10.8552 5.24762C12.2108 4.88012 15.9485 4.15012 20.1862 4.13012H20.3639C24.6751 4.13012 28.4625 4.87512 29.8158 5.24762Z" fill="#08B786"/>
<path d="M30.3108 39.4626L32.6809 36.6701L34.7974 38.6701V30.3826H38.3525V38.6676L40.4666 36.6676L42.8367 39.4601L36.5773 45.3826L30.3108 39.4626Z" fill="#08B786"/>
<path fill-rule="evenodd" clip-rule="evenodd" d="M18.5555 37.8826V36.5751C17.6819 36.4317 16.8612 36.0418 16.1803 35.4469C15.4995 34.8519 14.9837 34.0739 14.6875 33.1951C14.6053 32.9619 14.5678 32.7138 14.5774 32.4652C14.5869 32.2166 14.6433 31.9725 14.7432 31.7471C14.8431 31.5217 14.9845 31.3195 15.1592 31.1524C15.334 30.9852 15.5385 30.8564 15.7609 30.7734C15.9833 30.6905 16.2191 30.6551 16.4546 30.6692C16.6901 30.6834 16.9206 30.7468 17.1326 30.8559C17.3446 30.9649 17.5339 31.1174 17.6895 31.3044C17.8451 31.4914 17.9638 31.7092 18.0388 31.9451C18.1336 32.2351 18.3185 32.4801 18.5555 32.6451V30.0126C17.4012 29.8253 16.3486 29.2083 15.5881 28.2733C14.8277 27.3383 14.4097 26.147 14.4097 24.9151C14.4097 23.6832 14.8277 22.492 15.5881 21.557C16.3486 20.622 17.4012 20.005 18.5555 19.8176V18.5076H22.1106V19.8176C23.9119 20.1051 25.3885 21.4326 25.9786 23.1951C26.0609 23.4283 26.0983 23.6764 26.0888 23.9251C26.0792 24.1737 26.0229 24.4178 25.923 24.6432C25.8231 24.8686 25.6816 25.0708 25.5069 25.2379C25.3322 25.4051 25.1277 25.5339 24.9053 25.6168C24.6829 25.6998 24.4471 25.7352 24.2116 25.7211C23.9761 25.7069 23.7456 25.6435 23.5336 25.5344C23.3216 25.4253 23.1322 25.2729 22.9766 25.0859C22.821 24.8988 22.7023 24.681 22.6273 24.4451C22.5316 24.1589 22.3503 23.9132 22.1106 23.7451V26.3776C23.2666 26.5633 24.3212 27.1797 25.0832 28.1151C25.8452 29.0505 26.2642 30.243 26.2642 31.4764C26.2642 32.7097 25.8452 33.9022 25.0832 34.8377C24.3212 35.7731 23.2666 36.3895 22.1106 36.5751V37.8826H18.5555ZM22.7032 31.4776C22.7032 31.9626 22.4662 32.3926 22.1106 32.6451V30.3076C22.4662 30.5576 22.7032 30.9901 22.7032 31.4776ZM17.963 24.9101C17.963 24.4251 18.2 23.9951 18.5555 23.7426V26.0801C18.3731 25.9522 18.2235 25.7787 18.1201 25.575C18.0167 25.3712 17.9627 25.1437 17.963 24.9126" fill="#08B786"/>
</svg>
